HIERARCHY
ROOT hip
{
	OFFSET 0.000000 0.000000 0.000000 
	CHANNELS 6 Xposition Yposition Zposition Xrotation Zrotation Yrotation
	JOINT abdomen
	{
		OFFSET 0.000000 3.402643 0.000000 
		CHANNELS 3 Xrotation Zrotation Yrotation
		JOINT chest
		{
			OFFSET 0.000000 8.438565 -0.680529 
			CHANNELS 3 Xrotation Zrotation Yrotation
			JOINT neck
			{
				OFFSET 0.000000 10.207942 -0.272212 
				CHANNELS 3 Xrotation Zrotation Yrotation
				JOINT head
				{
					OFFSET 0.000000 3.130431 0.000000 
					CHANNELS 3 Xrotation Zrotation Yrotation
					End Site
					{
						OFFSET 0.000000 3.130435 0.000000 
					}
				}
			}
			JOINT lCollar
			{
				OFFSET 3.470700 6.669187 -0.816635 
				CHANNELS 3 Yrotation Zrotation Xrotation
				JOINT lShldr
				{
					OFFSET 3.198488 0.000000 0.000000 
					CHANNELS 3 Zrotation Yrotation Xrotation
					JOINT lForeArm
					{
						OFFSET 10.139888 0.000000 0.000000 
						CHANNELS 3 Yrotation Zrotation Xrotation
						JOINT lHand
						{
							OFFSET 8.370511 0.000000 0.000000 
							CHANNELS 3 Zrotation Yrotation Xrotation
							End Site
							{
								OFFSET 4.083176 0.000000 0.000000 
							}
						}
					}
				}
			}
			JOINT rCollar
			{
				OFFSET -3.470700 6.669187 -0.816635 
				CHANNELS 3 Yrotation Zrotation Xrotation
				JOINT rShldr
				{
					OFFSET -3.198488 0.000000 0.000000 
					CHANNELS 3 Zrotation Yrotation Xrotation
					JOINT rForeArm
					{
						OFFSET -10.139888 0.000000 0.000000 
						CHANNELS 3 Yrotation Zrotation Xrotation
						JOINT rHand
						{
							OFFSET -8.370511 0.000000 0.000000 
							CHANNELS 3 Zrotation Yrotation Xrotation
							End Site
							{
								OFFSET -4.083176 0.000000 0.000000 
							}
						}
					}
				}
			}
		}
	}
	JOINT lThigh
	{
		OFFSET 5.308129 -1.633274 1.361059 
		CHANNELS 3 Xrotation Zrotation Yrotation
		JOINT lShin
		{
			OFFSET -2.041588 -20.007561 0.000000 
			CHANNELS 3 Xrotation Zrotation Yrotation
			JOINT lFoot
			{
				OFFSET 0.000000 -19.190928 -1.224953 
				CHANNELS 3 Xrotation Yrotation Zrotation
				End Site
				{
					OFFSET 0.000000 -2.449906 4.627600 
				}
			}
		}
	}
	JOINT rThigh
	{
		OFFSET -5.308129 -1.633274 1.361059 
		CHANNELS 3 Xrotation Zrotation Yrotation
		JOINT rShin
		{
			OFFSET 2.041588 -20.007561 0.000000 
			CHANNELS 3 Xrotation Zrotation Yrotation
			JOINT rFoot
			{
				OFFSET 0.000000 -19.190928 -1.224953 
				CHANNELS 3 Xrotation Yrotation Zrotation
				End Site
				{
					OFFSET 0.000000 -2.449906 4.627600 
				}
			}
		}
	}
}
MOTION
Frames: 15
Frame Time: 0.033333
36.680862 51.590290 -96.015785 8.583984 15.820313 -52.829369 24.512918 -5.752848 -4.021315 -12.490233 8.193360 4.220142 -0.009765 0.000000 0.000000 13.105470 7.011718 -19.461699 2.000000 -2.000000 0.000000 -72.695313 30.302732 -51.328125 -96.252495 0.795855 0.484029 26.581512 35.052555 -0.409052 -2.000000 2.000000 0.000000 72.080078 -41.181641 -60.406822 128.965469 -0.475123 0.190334 -32.238968 -57.021221 25.188078 -34.599167 3.652467 5.787882 23.098722 -5.471227 -2.348643 -2.778440 5.496975 -2.188753 -28.450201 -19.939194 16.869295 32.902184 3.831677 3.287133 1.229494 8.578690 13.363280 
37.162258 51.358746 -95.250893 8.613281 16.494141 -53.564453 24.512918 -5.752848 -4.021315 -12.675782 8.027344 4.160157 -0.009765 0.000000 0.000000 11.132813 6.699219 -19.959799 2.000000 -2.000000 0.000000 -73.496094 29.863281 -51.352558 -95.374779 0.802706 0.434721 26.609276 35.063065 0.517434 -2.000000 2.000000 0.000000 70.244141 -39.619141 -59.394531 128.789917 -0.484293 0.180011 -32.203014 -57.020023 24.612925 -34.463280 2.820507 7.068248 21.857643 -5.423106 -2.386220 -2.796064 6.280661 -1.530154 -33.077656 -18.045284 17.419739 36.980080 4.056291 3.634082 0.880500 5.382339 15.638258 
37.645836 51.342205 -94.518539 8.828125 17.373047 -54.430679 24.512918 -5.752848 -4.021315 -13.046875 7.705078 4.218750 -0.009765 0.000000 0.000000 8.837891 6.250000 -20.467688 2.000000 -2.000000 0.000000 -73.886719 29.511721 -51.357422 -94.298218 0.302168 0.572109 26.495403 34.854851 1.422703 -2.000000 2.000000 0.000000 68.105469 -37.919922 -58.140770 128.265030 -0.449266 0.084288 -33.155769 -57.287071 24.456125 -34.340530 2.039845 8.488265 20.429556 -5.487060 -2.251304 -2.614339 6.731676 -1.018829 -37.945179 -16.601017 16.576954 40.117107 3.665475 3.948181 1.524212 2.719891 18.232595 
38.125408 51.491066 -93.779747 8.876953 18.076172 -55.387592 24.512918 -5.752848 -4.021315 -13.417969 7.548829 4.130860 -0.009765 0.000000 0.000000 5.986328 5.585938 -21.044924 2.000000 -2.000000 0.000000 -74.775391 28.906248 -51.342937 -93.238823 0.143769 0.376163 26.434471 34.970482 1.771191 -2.000000 2.000000 0.000000 65.537109 -35.527340 -56.464840 127.373657 -0.514117 0.188025 -35.081505 -57.922455 25.260118 -34.356075 0.945635 9.295317 19.159592 -5.607463 -2.138396 -2.110837 7.095654 -0.005398 -42.059044 -16.181353 15.188298 42.063667 3.684360 4.195389 3.587126 0.507364 19.914785 
38.619671 51.557213 -93.092209 9.091797 19.091797 -55.875713 24.512918 -5.752848 -4.021315 -13.593750 7.382812 4.259068 -0.009765 0.000000 0.000000 2.988281 4.716797 -21.542168 2.000000 -2.000000 0.000000 -75.820313 28.144531 -51.430943 -92.191025 0.696053 0.450852 25.381786 34.991966 2.012159 -2.000000 2.000000 0.000000 61.982422 -32.773441 -54.321693 125.790962 -0.359877 0.226436 -39.218456 -58.363255 27.605602 -34.905510 -0.020461 10.454757 18.157112 -5.637223 -1.850117 -2.341938 7.547972 1.138811 -46.027390 -16.844515 12.190826 42.070705 3.587039 4.151224 8.407039 -0.376354 20.097038 
39.130096 51.524143 -92.508797 9.570312 20.449217 -56.181641 24.512918 -5.752848 -4.021315 -13.955079 7.226563 4.179688 -0.009765 0.000000 0.000000 -0.204849 3.847557 -22.187378 2.000000 -2.000000 0.000000 -77.226563 27.558592 -51.943359 -90.961861 0.527433 0.411994 25.140656 35.161716 2.012935 -2.000000 2.000000 0.000000 58.408199 -30.146484 -52.001953 124.385109 -0.563438 0.194885 -43.253487 -58.941727 29.557373 -36.122356 -1.112896 11.974587 17.090219 -5.859498 -1.765486 -1.983281 7.363226 2.344026 -49.674297 -18.602560 7.131570 40.645931 3.528234 3.961545 14.986429 -0.738664 19.722534 
39.678051 51.424911 -92.022537 10.234376 22.148439 -56.177959 24.512918 -5.752848 -4.021315 -14.326173 6.904297 4.248047 -0.009765 0.000000 0.000000 -3.710938 2.978516 -22.705082 2.000000 -2.000000 0.000000 -78.466797 27.197266 -52.304691 -89.561127 0.562859 0.185043 24.738089 35.386112 2.153463 -2.000000 2.000000 0.000000 54.882813 -27.001953 -49.721226 122.631401 -0.582855 0.027479 -49.104713 -59.402393 33.563156 -38.242210 -1.935508 13.361399 17.947969 -5.613710 -2.187618 1.720358 7.278263 1.880650 -52.601849 -20.867514 2.935586 38.383999 3.964296 3.688452 22.587130 -1.891020 19.094332 
40.226131 51.185078 -91.681564 10.976563 24.033205 -55.913986 24.512918 -5.752848 -4.021315 -14.687499 6.738282 4.180833 -0.009765 0.000000 0.000000 -7.226564 1.914062 -23.281254 2.000000 -2.000000 0.000000 -80.000000 26.748047 -52.290527 -88.334030 0.763133 0.427298 24.126083 35.703251 1.902920 -2.000000 2.000000 0.000000 51.220703 -23.857422 -47.548828 120.708031 -0.620693 0.005679 -54.299305 -59.558807 37.000015 -41.289223 -2.743681 14.759274 19.388474 -5.663895 -2.158089 1.020356 6.888331 2.815426 -54.735863 -22.812443 -0.945987 36.800514 4.071688 3.382242 28.467100 -3.427674 19.615133 
40.795826 50.829468 -91.492805 11.728517 26.054689 -55.415630 24.512918 -5.752848 -4.021315 -15.048828 6.582032 4.092916 -0.009765 0.000000 0.000000 -10.751955 0.683594 -23.701174 2.000000 -2.000000 0.000000 -81.152344 26.318359 -51.972656 -86.918701 0.440277 0.426964 24.452854 36.238827 1.825422 -2.000000 2.000000 0.000000 48.007813 -20.312498 -45.937500 118.932716 -0.479594 -0.064204 -59.651608 -59.660786 39.913445 -44.343418 -3.564714 15.827032 20.575327 -5.451935 -2.404347 0.646937 7.372361 3.251146 -55.929756 -24.595964 -2.854144 36.467091 4.266737 3.415638 21.472570 -3.651745 18.047684 
41.321926 50.432526 -91.426964 12.753907 28.046875 -54.536419 24.512918 -5.752848 -4.021315 -15.410156 6.425781 4.208984 -0.009765 0.000000 0.000000 -14.433594 -0.517578 -24.150482 2.000000 -2.000000 0.000000 -82.431641 26.376953 -51.083984 -85.679237 0.282564 0.407017 25.507708 36.812504 2.088717 -2.000000 2.000000 0.000000 44.833988 -16.904299 -44.377842 116.827148 -0.688433 0.158144 -65.341904 -59.697151 44.069401 -48.156010 -4.151700 16.626781 23.244419 -5.326394 -2.529029 -0.083577 6.839473 3.781652 -56.765678 -25.682718 -4.079687 35.398899 4.101419 3.084310 15.276702 -4.078518 17.775372 
41.837574 50.027298 -91.533012 13.808595 29.853518 -53.627949 24.512918 -5.752848 -4.021315 -15.781249 6.083985 4.102598 -0.009765 0.000000 0.000000 -18.125004 -1.689453 -24.609377 2.000000 -2.000000 0.000000 -83.271484 26.123047 -49.628906 -84.467033 0.830792 0.413489 25.955112 37.547131 2.057967 -2.000000 2.000000 0.000000 41.650391 -13.759767 -42.980835 114.883522 -0.728005 0.165581 -70.572876 -59.709198 47.396809 -51.048313 -4.913249 17.322546 23.601986 -5.247903 -2.535102 -1.108457 6.868261 4.537391 -58.650269 -26.541870 -4.659829 35.406780 4.154106 3.285102 10.668171 -4.481677 18.162060 
42.322361 49.547653 -91.752869 14.912109 31.621096 -52.680428 24.512918 -5.752848 -4.021315 -16.132811 5.917969 4.053741 -0.009765 0.000000 0.000000 -21.494141 -2.958984 -24.883003 2.000000 -2.000000 0.000000 -83.750000 26.210938 -48.364830 -83.578720 0.664490 0.413612 26.205109 38.052025 1.793984 -2.000000 2.000000 0.000000 38.388672 -11.005858 -42.255856 112.762321 -0.567488 0.263007 -75.375130 -59.673988 50.857521 -54.942337 -5.245704 17.585886 26.072155 -5.277754 -2.795259 -1.535312 6.965420 4.472039 -61.450031 -27.263105 -4.436443 36.491207 4.276955 3.265275 7.302257 -4.877794 18.160366 
42.801807 49.059734 -92.030434 15.820313 33.242188 -51.537613 24.512918 -5.752848 -4.021315 -16.494143 5.761719 4.169922 -0.009765 0.000000 0.000000 -24.873047 -4.003906 -25.244143 2.000000 -2.000000 0.000000 -84.052734 26.435545 -47.710499 -82.876541 0.691418 0.372889 25.912727 38.552441 1.633550 -2.000000 2.000000 0.000000 35.498047 -8.115234 -42.013100 110.648575 -0.437783 0.055628 -79.995811 -59.602650 53.943470 -58.270672 -5.595345 17.794891 28.170172 -5.023749 -2.785477 -2.331955 7.149852 4.522390 -64.459244 -27.839996 -4.030672 37.688690 4.012966 3.473974 4.507811 -5.235152 17.882771 
43.276886 48.513931 -92.347229 16.708986 34.511719 -50.717117 24.512918 -5.752848 -4.021315 -16.855469 5.605469 4.101563 -0.009765 0.000000 0.000000 -28.095703 -5.127314 -25.419044 2.000000 -2.000000 0.000000 -84.267578 26.318356 -46.802311 -82.349670 0.700008 0.352818 25.396141 38.841965 1.192461 -2.000000 2.000000 0.000000 32.265625 -5.869141 -42.188499 108.560806 -0.647051 -0.044780 -83.594833 -60.377228 57.023941 -61.477493 -5.889898 17.567797 30.111473 -4.840201 -2.606782 -6.494577 7.243209 5.512758 -67.320770 -28.220907 -3.907547 39.955803 3.723803 3.955813 2.047258 -5.973267 17.851933 
43.753906 47.926769 -92.718681 17.353516 35.458984 -49.984566 24.512918 -5.752848 -4.021315 -17.216799 5.273438 4.023376 -0.009765 0.000000 0.000000 -31.142578 -6.035156 -25.751957 2.000000 -2.000000 0.000000 -84.248047 26.425781 -45.898445 -81.987091 0.352541 0.432189 24.886486 39.200302 1.327181 -2.000000 2.000000 0.000000 29.394531 -4.072266 -43.037800 106.089821 -0.686623 -0.037343 -87.508469 -61.102283 60.557125 -64.490875 -6.054377 17.550085 32.758896 -4.721515 -3.014454 -7.223733 8.026056 4.689346 -69.852661 -28.652168 -3.061509 41.727844 3.740059 3.597420 -0.361633 -6.294058 17.608988 
